ISO-10303-21;
HEADER;
FILE_DESCRIPTION (( 'STEP AP214' ),
    '1' );
FILE_NAME ('cylinder.STEP',
    '2025-08-14T15:41:37',
    ( '' ),
    ( '' ),
    'SwSTEP 2.0',
    'SolidWorks 2025',
    '' );
FILE_SCHEMA (( 'AUTOMOTIVE_DESIGN' ));
ENDSEC;

DATA;
#1 = AXIS2_PLACEMENT_3D ( 'NONE', #123, #125, #176 ) ;
#2 = VERTEX_POINT ( 'NONE', #173 ) ;
#3 = ADVANCED_BREP_SHAPE_REPRESENTATION ( 'cylinder', ( #185, #158 ), #85 ) ;
#4 = ORIENTED_EDGE ( 'NONE', *, *, #62, .T. ) ;
#5 = EDGE_LOOP ( 'NONE', ( #83, #111 ) ) ;
#6 = ORIENTED_EDGE ( 'NONE', *, *, #62, .F. ) ;
#7 = DIRECTION ( 'NONE',  ( 1.000000000000000000, 0.000000000000000000, 0.000000000000000000 ) ) ;
#8 = DIRECTION ( 'NONE',  ( 1.000000000000000000, 0.000000000000000000, 0.000000000000000000 ) ) ;
#9 = VECTOR ( 'NONE', #193, 1000.000000000000000 ) ;
#10 = VECTOR ( 'NONE', #15, 1000.000000000000000 ) ;
#11 = DIRECTION ( 'NONE',  ( 1.000000000000000000, 0.000000000000000000, 0.000000000000000000 ) ) ;
#12 = FACE_BOUND ( 'NONE', #154, .T. ) ;
#13 = COLOUR_RGB ( '',0.7921568627450980005, 0.8196078431372548767, 0.9333333333333333481 ) ;
#14 = CARTESIAN_POINT ( 'NONE',  ( -2500.000000000000000, 0.000000000000000000, -170.5000000000000000 ) ) ;
#15 = DIRECTION ( 'NONE',  ( 1.000000000000000000, 0.000000000000000000, 0.000000000000000000 ) ) ;
#16 = DIRECTION ( 'NONE',  ( 0.000000000000000000, 0.000000000000000000, 1.000000000000000000 ) ) ;
#17 = DIRECTION ( 'NONE',  ( 0.000000000000000000, 0.000000000000000000, -1.000000000000000000 ) ) ;
#18 = FACE_BOUND ( 'NONE', #72, .T. ) ;
#19 = CIRCLE ( 'NONE', #66, 170.5000000000000000 ) ;
#20 = DIRECTION ( 'NONE',  ( 0.000000000000000000, 0.000000000000000000, -1.000000000000000000 ) ) ;
#21 = EDGE_LOOP ( 'NONE', ( #42, #90, #177, #126 ) ) ;
#22 = ORIENTED_EDGE ( 'NONE', *, *, #73, .T. ) ;
#23 = CARTESIAN_POINT ( 'NONE',  ( 2500.000000000000000, 0.000000000000000000, 0.000000000000000000 ) ) ;
#24 = EDGE_CURVE ( 'NONE', #63, #2, #189, .T. ) ;
#25 = DIRECTION ( 'NONE',  ( 0.000000000000000000, 0.000000000000000000, -1.000000000000000000 ) ) ;
#26 = ORIENTED_EDGE ( 'NONE', *, *, #106, .F. ) ;
#27 = FILL_AREA_STYLE_COLOUR ( '', #13 ) ;
#28 = EDGE_CURVE ( 'NONE', #33, #37, #175, .T. ) ;
#29 = CARTESIAN_POINT ( 'NONE',  ( -2500.000000000000000, 0.000000000000000000, 0.000000000000000000 ) ) ;
#30 =( NAMED_UNIT ( * ) SI_UNIT ( $, .STERADIAN. ) SOLID_ANGLE_UNIT ( ) );
#31 = PRODUCT_DEFINITION_CONTEXT ( 'detailed design', #194, 'design' ) ;
#32 = DIRECTION ( 'NONE',  ( 0.000000000000000000, 0.000000000000000000, -1.000000000000000000 ) ) ;
#33 = VERTEX_POINT ( 'NONE', #82 ) ;
#34 = AXIS2_PLACEMENT_3D ( 'NONE', #29, #157, #17 ) ;
#35 = UNCERTAINTY_MEASURE_WITH_UNIT (LENGTH_MEASURE( 1.000000000000000082E-05 ), #107, 'distance_accuracy_value', 'NONE');
#36 = CYLINDRICAL_SURFACE ( 'NONE', #160, 160.5000000000000000 ) ;
#37 = VERTEX_POINT ( 'NONE', #161 ) ;
#38 = SURFACE_STYLE_FILL_AREA ( #117 ) ;
#39 = PLANE ( 'NONE',  #103 ) ;
#40 = DIRECTION ( 'NONE',  ( 0.000000000000000000, 0.000000000000000000, -1.000000000000000000 ) ) ;
#41 = EDGE_CURVE ( 'NONE', #2, #142, #119, .T. ) ;
#42 = ORIENTED_EDGE ( 'NONE', *, *, #106, .T. ) ;
#43 = DIRECTION ( 'NONE',  ( 0.000000000000000000, 0.000000000000000000, -1.000000000000000000 ) ) ;
#44 = PRESENTATION_LAYER_ASSIGNMENT (  '', '', ( #150 ) ) ;
#45 = SHAPE_DEFINITION_REPRESENTATION ( #58, #3 ) ;
#46 = EDGE_LOOP ( 'NONE', ( #50, #4, #22, #163 ) ) ;
#47 = CARTESIAN_POINT ( 'NONE',  ( 2500.000000000000000, 0.000000000000000000, 0.000000000000000000 ) ) ;
#48 = CARTESIAN_POINT ( 'NONE',  ( -2500.000000000000000, 0.000000000000000000, -160.5000000000000000 ) ) ;
#49 = AXIS2_PLACEMENT_3D ( 'NONE', #47, #8, #20 ) ;
#50 = ORIENTED_EDGE ( 'NONE', *, *, #65, .F. ) ;
#51 = ADVANCED_FACE ( 'NONE', ( #113 ), #61, .T. ) ;
#52 = LINE ( 'NONE', #14, #152 ) ;
#53 = APPLICATION_CONTEXT ( 'automotive_design' ) ;
#54 = SURFACE_SIDE_STYLE ('',( #38 ) ) ;
#55 =( LENGTH_UNIT ( ) NAMED_UNIT ( * ) SI_UNIT ( .MILLI., .METRE. ) );
#56 = DIRECTION ( 'NONE',  ( 0.000000000000000000, 0.000000000000000000, -1.000000000000000000 ) ) ;
#57 = CLOSED_SHELL ( 'NONE', ( #99, #51, #114, #172, #81, #77 ) ) ;
#58 = PRODUCT_DEFINITION_SHAPE ( 'NONE', 'NONE',  #143 ) ;
#59 = ORIENTED_EDGE ( 'NONE', *, *, #41, .T. ) ;
#60 = EDGE_LOOP ( 'NONE', ( #101, #100, #138, #75 ) ) ;
#61 = CYLINDRICAL_SURFACE ( 'NONE', #148, 170.5000000000000000 ) ;
#62 = EDGE_CURVE ( 'NONE', #79, #142, #174, .T. ) ;
#63 = VERTEX_POINT ( 'NONE', #110 ) ;
#64 = CARTESIAN_POINT ( 'NONE',  ( 2500.000000000000000, 0.000000000000000000, 0.000000000000000000 ) ) ;
#65 = EDGE_CURVE ( 'NONE', #79, #63, #86, .T. ) ;
#66 = AXIS2_PLACEMENT_3D ( 'NONE', #133, #136, #131 ) ;
#67 = CIRCLE ( 'NONE', #89, 170.5000000000000000 ) ;
#68 =( NAMED_UNIT ( * ) PLANE_ANGLE_UNIT ( ) SI_UNIT ( $, .RADIAN. ) );
#69 = FACE_OUTER_BOUND ( 'NONE', #60, .T. ) ;
#70 = CARTESIAN_POINT ( 'NONE',  ( -2500.000000000000000, 0.000000000000000000, 0.000000000000000000 ) ) ;
#71 = DIRECTION ( 'NONE',  ( 1.000000000000000000, 0.000000000000000000, 0.000000000000000000 ) ) ;
#72 = EDGE_LOOP ( 'NONE', ( #186, #80 ) ) ;
#73 = EDGE_CURVE ( 'NONE', #142, #2, #191, .T. ) ;
#74 = CARTESIAN_POINT ( 'NONE',  ( -2500.000000000000000, 0.000000000000000000, 0.000000000000000000 ) ) ;
#75 = ORIENTED_EDGE ( 'NONE', *, *, #28, .F. ) ;
#76 = FACE_OUTER_BOUND ( 'NONE', #124, .T. ) ;
#77 = ADVANCED_FACE ( 'NONE', ( #76 ), #36, .F. ) ;
#78 = DIRECTION ( 'NONE',  ( 1.000000000000000000, 0.000000000000000000, 0.000000000000000000 ) ) ;
#79 = VERTEX_POINT ( 'NONE', #96 ) ;
#80 = ORIENTED_EDGE ( 'NONE', *, *, #73, .F. ) ;
#81 = ADVANCED_FACE ( 'NONE', ( #18, #181 ), #39, .T. ) ;
#82 = CARTESIAN_POINT ( 'NONE',  ( 2500.000000000000000, 2.088022792546237431E-14, 170.5000000000000000 ) ) ;
#83 = ORIENTED_EDGE ( 'NONE', *, *, #151, .T. ) ;
#84 = CARTESIAN_POINT ( 'NONE',  ( -2500.000000000000000, 0.000000000000000000, -170.5000000000000000 ) ) ;
#85 =( GEOMETRIC_REPRESENTATION_CONTEXT ( 3 ) GLOBAL_UNCERTAINTY_ASSIGNED_CONTEXT ( ( #35 ) ) GLOBAL_UNIT_ASSIGNED_CONTEXT ( ( #107, #121, #30 ) ) REPRESENTATION_CONTEXT ( 'NONE', 'WORKASPACE' ) );
#86 = CIRCLE ( 'NONE', #34, 160.5000000000000000 ) ;
#87 = DIRECTION ( 'NONE',  ( 1.000000000000000000, 0.000000000000000000, 0.000000000000000000 ) ) ;
#88 = PRESENTATION_STYLE_ASSIGNMENT (( #196 ) ) ;
#89 = AXIS2_PLACEMENT_3D ( 'NONE', #168, #71, #43 ) ;
#90 = ORIENTED_EDGE ( 'NONE', *, *, #156, .T. ) ;
#91 = DIRECTION ( 'NONE',  ( 0.000000000000000000, 0.000000000000000000, -1.000000000000000000 ) ) ;
#92 = CARTESIAN_POINT ( 'NONE',  ( 0.000000000000000000, 0.000000000000000000, 0.000000000000000000 ) ) ;
#93 = PRODUCT ( 'cylinder', 'cylinder', '', ( #95 ) ) ;
#94 = DIRECTION ( 'NONE',  ( 1.000000000000000000, 0.000000000000000000, 0.000000000000000000 ) ) ;
#95 = PRODUCT_CONTEXT ( 'NONE', #53, 'mechanical' ) ;
#96 = CARTESIAN_POINT ( 'NONE',  ( -2500.000000000000000, 1.965558112631501968E-14, 160.5000000000000000 ) ) ;
#97 = CIRCLE ( 'NONE', #183, 160.5000000000000000 ) ;
#98 = VERTEX_POINT ( 'NONE', #164 ) ;
#99 = ADVANCED_FACE ( 'NONE', ( #132 ), #167, .F. ) ;
#100 = ORIENTED_EDGE ( 'NONE', *, *, #146, .T. ) ;
#101 = ORIENTED_EDGE ( 'NONE', *, *, #156, .F. ) ;
#102 = AXIS2_PLACEMENT_3D ( 'NONE', #70, #11, #56 ) ;
#103 = AXIS2_PLACEMENT_3D ( 'NONE', #108, #153, #40 ) ;
#104 = CARTESIAN_POINT ( 'NONE',  ( -2500.000000000000000, 0.000000000000000000, 0.000000000000000000 ) ) ;
#105 = DIRECTION ( 'NONE',  ( 1.000000000000000000, 0.000000000000000000, 0.000000000000000000 ) ) ;
#106 = EDGE_CURVE ( 'NONE', #162, #98, #19, .T. ) ;
#107 =( LENGTH_UNIT ( ) NAMED_UNIT ( * ) SI_UNIT ( .MILLI., .METRE. ) );
#108 = CARTESIAN_POINT ( 'NONE',  ( 2500.000000000000000, 0.000000000000000000, 0.000000000000000000 ) ) ;
#109 = EDGE_CURVE ( 'NONE', #63, #79, #97, .T. ) ;
#110 = CARTESIAN_POINT ( 'NONE',  ( -2500.000000000000000, 0.000000000000000000, -160.5000000000000000 ) ) ;
#111 = ORIENTED_EDGE ( 'NONE', *, *, #28, .T. ) ;
#112 = DIRECTION ( 'NONE',  ( 0.000000000000000000, 0.000000000000000000, -1.000000000000000000 ) ) ;
#113 = FACE_OUTER_BOUND ( 'NONE', #21, .T. ) ;
#114 = ADVANCED_FACE ( 'NONE', ( #69 ), #198, .T. ) ;
#115 = ORIENTED_EDGE ( 'NONE', *, *, #109, .T. ) ;
#116 = CARTESIAN_POINT ( 'NONE',  ( -2500.000000000000000, 2.088022792546237431E-14, 170.5000000000000000 ) ) ;
#117 = FILL_AREA_STYLE ('',( #27 ) ) ;
#118 = DIRECTION ( 'NONE',  ( 1.000000000000000000, 0.000000000000000000, 0.000000000000000000 ) ) ;
#119 = CIRCLE ( 'NONE', #49, 160.5000000000000000 ) ;
#120 = EDGE_LOOP ( 'NONE', ( #26, #134 ) ) ;
#121 =( NAMED_UNIT ( * ) PLANE_ANGLE_UNIT ( ) SI_UNIT ( $, .RADIAN. ) );
#122 = MECHANICAL_DESIGN_GEOMETRIC_PRESENTATION_REPRESENTATION (  '', ( #150 ), #180 ) ;
#123 = CARTESIAN_POINT ( 'NONE',  ( 2500.000000000000000, 0.000000000000000000, 0.000000000000000000 ) ) ;
#124 = EDGE_LOOP ( 'NONE', ( #6, #192, #171, #59 ) ) ;
#125 = DIRECTION ( 'NONE',  ( 1.000000000000000000, 0.000000000000000000, 0.000000000000000000 ) ) ;
#126 = ORIENTED_EDGE ( 'NONE', *, *, #139, .F. ) ;
#127 = CARTESIAN_POINT ( 'NONE',  ( -2500.000000000000000, 0.000000000000000000, 0.000000000000000000 ) ) ;
#128 = AXIS2_PLACEMENT_3D ( 'NONE', #74, #118, #91 ) ;
#129 = UNCERTAINTY_MEASURE_WITH_UNIT (LENGTH_MEASURE( 1.000000000000000082E-05 ), #55, 'distance_accuracy_value', 'NONE');
#130 = DIRECTION ( 'NONE',  ( 1.000000000000000000, 0.000000000000000000, 0.000000000000000000 ) ) ;
#131 = DIRECTION ( 'NONE',  ( 0.000000000000000000, 0.000000000000000000, -1.000000000000000000 ) ) ;
#132 = FACE_OUTER_BOUND ( 'NONE', #46, .T. ) ;
#133 = CARTESIAN_POINT ( 'NONE',  ( -2500.000000000000000, 0.000000000000000000, 0.000000000000000000 ) ) ;
#134 = ORIENTED_EDGE ( 'NONE', *, *, #146, .F. ) ;
#135 = PRODUCT_DEFINITION_FORMATION_WITH_SPECIFIED_SOURCE ( 'ANY', '', #93, .NOT_KNOWN. ) ;
#136 = DIRECTION ( 'NONE',  ( 1.000000000000000000, 0.000000000000000000, 0.000000000000000000 ) ) ;
#137 = AXIS2_PLACEMENT_3D ( 'NONE', #64, #190, #159 ) ;
#138 = ORIENTED_EDGE ( 'NONE', *, *, #139, .T. ) ;
#139 = EDGE_CURVE ( 'NONE', #162, #37, #52, .T. ) ;
#140 = CARTESIAN_POINT ( 'NONE',  ( -2500.000000000000000, 0.000000000000000000, 0.000000000000000000 ) ) ;
#141 = AXIS2_PLACEMENT_3D ( 'NONE', #104, #87, #25 ) ;
#142 = VERTEX_POINT ( 'NONE', #199 ) ;
#143 = PRODUCT_DEFINITION ( 'UNKNOWN', '', #135, #31 ) ;
#144 = CARTESIAN_POINT ( 'NONE',  ( -2500.000000000000000, 1.965558112631501968E-14, 160.5000000000000000 ) ) ;
#145 = ORIENTED_EDGE ( 'NONE', *, *, #65, .T. ) ;
#146 = EDGE_CURVE ( 'NONE', #98, #162, #67, .T. ) ;
#147 = FACE_OUTER_BOUND ( 'NONE', #120, .T. ) ;
#148 = AXIS2_PLACEMENT_3D ( 'NONE', #127, #7, #112 ) ;
#149 = LINE ( 'NONE', #116, #10 ) ;
#150 = STYLED_ITEM ( 'NONE', ( #88 ), #185 ) ;
#151 = EDGE_CURVE ( 'NONE', #37, #33, #184, .T. ) ;
#152 = VECTOR ( 'NONE', #155, 1000.000000000000000 ) ;
#153 = DIRECTION ( 'NONE',  ( 1.000000000000000000, 0.000000000000000000, 0.000000000000000000 ) ) ;
#154 = EDGE_LOOP ( 'NONE', ( #115, #145 ) ) ;
#155 = DIRECTION ( 'NONE',  ( 1.000000000000000000, 0.000000000000000000, 0.000000000000000000 ) ) ;
#156 = EDGE_CURVE ( 'NONE', #98, #33, #149, .T. ) ;
#157 = DIRECTION ( 'NONE',  ( 1.000000000000000000, 0.000000000000000000, 0.000000000000000000 ) ) ;
#158 = AXIS2_PLACEMENT_3D ( 'NONE', #92, #16, #78 ) ;
#159 = DIRECTION ( 'NONE',  ( 0.000000000000000000, 0.000000000000000000, -1.000000000000000000 ) ) ;
#160 = AXIS2_PLACEMENT_3D ( 'NONE', #140, #188, #32 ) ;
#161 = CARTESIAN_POINT ( 'NONE',  ( 2500.000000000000000, 0.000000000000000000, -170.5000000000000000 ) ) ;
#162 = VERTEX_POINT ( 'NONE', #84 ) ;
#163 = ORIENTED_EDGE ( 'NONE', *, *, #24, .F. ) ;
#164 = CARTESIAN_POINT ( 'NONE',  ( -2500.000000000000000, 2.088022792546237431E-14, 170.5000000000000000 ) ) ;
#165 = VECTOR ( 'NONE', #94, 1000.000000000000000 ) ;
#166 =( NAMED_UNIT ( * ) SI_UNIT ( $, .STERADIAN. ) SOLID_ANGLE_UNIT ( ) );
#167 = CYLINDRICAL_SURFACE ( 'NONE', #128, 160.5000000000000000 ) ;
#168 = CARTESIAN_POINT ( 'NONE',  ( -2500.000000000000000, 0.000000000000000000, 0.000000000000000000 ) ) ;
#169 = DIRECTION ( 'NONE',  ( 0.000000000000000000, 0.000000000000000000, -1.000000000000000000 ) ) ;
#170 = APPLICATION_PROTOCOL_DEFINITION ( 'draft international standard', 'automotive_design', 1998, #194 ) ;
#171 = ORIENTED_EDGE ( 'NONE', *, *, #24, .T. ) ;
#172 = ADVANCED_FACE ( 'NONE', ( #12, #147 ), #178, .F. ) ;
#173 = CARTESIAN_POINT ( 'NONE',  ( 2500.000000000000000, 0.000000000000000000, -160.5000000000000000 ) ) ;
#174 = LINE ( 'NONE', #144, #9 ) ;
#175 = CIRCLE ( 'NONE', #137, 170.5000000000000000 ) ;
#176 = DIRECTION ( 'NONE',  ( 0.000000000000000000, 0.000000000000000000, -1.000000000000000000 ) ) ;
#177 = ORIENTED_EDGE ( 'NONE', *, *, #151, .F. ) ;
#178 = PLANE ( 'NONE',  #102 ) ;
#179 = AXIS2_PLACEMENT_3D ( 'NONE', #23, #105, #169 ) ;
#180 =( GEOMETRIC_REPRESENTATION_CONTEXT ( 3 ) GLOBAL_UNCERTAINTY_ASSIGNED_CONTEXT ( ( #129 ) ) GLOBAL_UNIT_ASSIGNED_CONTEXT ( ( #55, #68, #166 ) ) REPRESENTATION_CONTEXT ( 'NONE', 'WORKASPACE' ) );
#181 = FACE_OUTER_BOUND ( 'NONE', #5, .T. ) ;
#182 = DIRECTION ( 'NONE',  ( 0.000000000000000000, 0.000000000000000000, -1.000000000000000000 ) ) ;
#183 = AXIS2_PLACEMENT_3D ( 'NONE', #195, #130, #182 ) ;
#184 = CIRCLE ( 'NONE', #179, 170.5000000000000000 ) ;
#185 = MANIFOLD_SOLID_BREP ( 'Shell1', #57 ) ;
#186 = ORIENTED_EDGE ( 'NONE', *, *, #41, .F. ) ;
#187 = APPLICATION_PROTOCOL_DEFINITION ( 'draft international standard', 'automotive_design', 1998, #53 ) ;
#188 = DIRECTION ( 'NONE',  ( 1.000000000000000000, 0.000000000000000000, 0.000000000000000000 ) ) ;
#189 = LINE ( 'NONE', #48, #165 ) ;
#190 = DIRECTION ( 'NONE',  ( 1.000000000000000000, 0.000000000000000000, 0.000000000000000000 ) ) ;
#191 = CIRCLE ( 'NONE', #1, 160.5000000000000000 ) ;
#192 = ORIENTED_EDGE ( 'NONE', *, *, #109, .F. ) ;
#193 = DIRECTION ( 'NONE',  ( 1.000000000000000000, 0.000000000000000000, 0.000000000000000000 ) ) ;
#194 = APPLICATION_CONTEXT ( 'automotive_design' ) ;
#195 = CARTESIAN_POINT ( 'NONE',  ( -2500.000000000000000, 0.000000000000000000, 0.000000000000000000 ) ) ;
#196 = SURFACE_STYLE_USAGE ( .BOTH. , #54 ) ;
#197 = PRODUCT_RELATED_PRODUCT_CATEGORY ( 'part', '', ( #93 ) ) ;
#198 = CYLINDRICAL_SURFACE ( 'NONE', #141, 170.5000000000000000 ) ;
#199 = CARTESIAN_POINT ( 'NONE',  ( 2500.000000000000000, 1.965558112631501968E-14, 160.5000000000000000 ) ) ;
ENDSEC;
END-ISO-10303-21;
