ISO-10303-21;
HEADER;
FILE_DESCRIPTION (( 'STEP AP214' ),
    '1' );
FILE_NAME ('floor.STEP',
    '2025-12-05T18:19:35',
    ( '' ),
    ( '' ),
    'SwSTEP 2.0',
    'SolidWorks 2025',
    '' );
FILE_SCHEMA (( 'AUTOMOTIVE_DESIGN' ));
ENDSEC;

DATA;
#1 = VECTOR ( 'NONE', #11, 1000.000000000000000 ) ;
#2 = MANIFOLD_SOLID_BREP ( 'Boss-Extrude3', #117 ) ;
#3 = STYLED_ITEM ( 'NONE', ( #113 ), #2 ) ;
#4 = DIRECTION ( 'NONE',  ( 0.000000000000000000, 0.000000000000000000, 1.000000000000000000 ) ) ;
#5 = SURFACE_STYLE_FILL_AREA ( #131 ) ;
#6 = EDGE_LOOP ( 'NONE', ( #145, #124, #98, #70 ) ) ;
#7 = DIRECTION ( 'NONE',  ( 1.000000000000000000, 0.000000000000000000, 0.000000000000000000 ) ) ;
#8 = CARTESIAN_POINT ( 'NONE',  ( 3000.000000000000455, -500.0000000000000000, 10.00000000000000000 ) ) ;
#9 = EDGE_CURVE ( 'NONE', #127, #75, #149, .T. ) ;
#10 = DIRECTION ( 'NONE',  ( -0.000000000000000000, -0.000000000000000000, -1.000000000000000000 ) ) ;
#11 = DIRECTION ( 'NONE',  ( 1.000000000000000000, 0.000000000000000000, 0.000000000000000000 ) ) ;
#12 = PRODUCT ( 'floor', 'floor', '', ( #111 ) ) ;
#13 = DIRECTION ( 'NONE',  ( 1.000000000000000000, 0.000000000000000000, 0.000000000000000000 ) ) ;
#14 = APPLICATION_CONTEXT ( 'automotive_design' ) ;
#15 = ADVANCED_FACE ( 'NONE', ( #61 ), #63, .T. ) ;
#16 = VECTOR ( 'NONE', #120, 1000.000000000000000 ) ;
#17 = VERTEX_POINT ( 'NONE', #179 ) ;
#18 =( NAMED_UNIT ( * ) SI_UNIT ( $, .STERADIAN. ) SOLID_ANGLE_UNIT ( ) );
#19 = ORIENTED_EDGE ( 'NONE', *, *, #109, .T. ) ;
#20 = VECTOR ( 'NONE', #53, 1000.000000000000000 ) ;
#21 = PLANE ( 'NONE',  #164 ) ;
#22 = CARTESIAN_POINT ( 'NONE',  ( -2999.999999999999545, 500.0000000000000000, 10.00000000000000000 ) ) ;
#23 = DIRECTION ( 'NONE',  ( 1.000000000000000000, 0.000000000000000000, 0.000000000000000000 ) ) ;
#24 = FACE_OUTER_BOUND ( 'NONE', #83, .T. ) ;
#25 = CARTESIAN_POINT ( 'NONE',  ( -2999.999999999999545, 500.0000000000000000, 10.00000000000000000 ) ) ;
#26 = FACE_OUTER_BOUND ( 'NONE', #6, .T. ) ;
#27 = ORIENTED_EDGE ( 'NONE', *, *, #109, .F. ) ;
#28 = EDGE_CURVE ( 'NONE', #165, #127, #44, .T. ) ;
#29 = LINE ( 'NONE', #73, #38 ) ;
#30 = COLOUR_RGB ( '',0.7921568627450980005, 0.8196078431372548767, 0.9333333333333333481 ) ;
#31 = PRODUCT_DEFINITION_CONTEXT ( 'detailed design', #14, 'design' ) ;
#32 = CARTESIAN_POINT ( 'NONE',  ( -2999.999999999999545, -500.0000000000000000, 10.00000000000000000 ) ) ;
#33 = CARTESIAN_POINT ( 'NONE',  ( -2999.999999999999545, 500.0000000000000000, 10.00000000000000000 ) ) ;
#34 = CARTESIAN_POINT ( 'NONE',  ( -2999.999999999999545, -500.0000000000000000, 10.00000000000000000 ) ) ;
#35 = DIRECTION ( 'NONE',  ( 0.000000000000000000, 0.000000000000000000, 1.000000000000000000 ) ) ;
#36 =( LENGTH_UNIT ( ) NAMED_UNIT ( * ) SI_UNIT ( .MILLI., .METRE. ) );
#37 = ORIENTED_EDGE ( 'NONE', *, *, #46, .F. ) ;
#38 = VECTOR ( 'NONE', #100, 1000.000000000000000 ) ;
#39 = EDGE_LOOP ( 'NONE', ( #47, #54, #81, #27 ) ) ;
#40 = VECTOR ( 'NONE', #7, 1000.000000000000000 ) ;
#41 = AXIS2_PLACEMENT_3D ( 'NONE', #33, #105, #183 ) ;
#42 =( LENGTH_UNIT ( ) NAMED_UNIT ( * ) SI_UNIT ( .MILLI., .METRE. ) );
#43 = AXIS2_PLACEMENT_3D ( 'NONE', #77, #65, #184 ) ;
#44 = LINE ( 'NONE', #101, #72 ) ;
#45 = ADVANCED_BREP_SHAPE_REPRESENTATION ( 'floor', ( #2, #132 ), #114 ) ;
#46 = EDGE_CURVE ( 'NONE', #182, #177, #29, .T. ) ;
#47 = ORIENTED_EDGE ( 'NONE', *, *, #160, .T. ) ;
#48 = LINE ( 'NONE', #133, #16 ) ;
#49 = CARTESIAN_POINT ( 'NONE',  ( -2999.999999999999545, -500.0000000000000000, 0.000000000000000000 ) ) ;
#50 = CARTESIAN_POINT ( 'NONE',  ( 3000.000000000000455, -500.0000000000000000, 0.000000000000000000 ) ) ;
#51 = ADVANCED_FACE ( 'NONE', ( #26 ), #129, .F. ) ;
#52 = PRODUCT_DEFINITION_FORMATION_WITH_SPECIFIED_SOURCE ( 'ANY', '', #12, .NOT_KNOWN. ) ;
#53 = DIRECTION ( 'NONE',  ( -0.000000000000000000, -0.000000000000000000, -1.000000000000000000 ) ) ;
#54 = ORIENTED_EDGE ( 'NONE', *, *, #158, .T. ) ;
#55 =( NAMED_UNIT ( * ) SI_UNIT ( $, .STERADIAN. ) SOLID_ANGLE_UNIT ( ) );
#56 = VECTOR ( 'NONE', #155, 1000.000000000000000 ) ;
#57 = APPLICATION_PROTOCOL_DEFINITION ( 'draft international standard', 'automotive_design', 1998, #14 ) ;
#58 = ORIENTED_EDGE ( 'NONE', *, *, #9, .T. ) ;
#59 = ADVANCED_FACE ( 'NONE', ( #78 ), #103, .F. ) ;
#60 = SURFACE_SIDE_STYLE ('',( #5 ) ) ;
#61 = FACE_OUTER_BOUND ( 'NONE', #84, .T. ) ;
#62 = FILL_AREA_STYLE_COLOUR ( '', #30 ) ;
#63 = PLANE ( 'NONE',  #102 ) ;
#64 = PLANE ( 'NONE',  #154 ) ;
#65 = DIRECTION ( 'NONE',  ( 0.000000000000000000, 0.000000000000000000, 1.000000000000000000 ) ) ;
#66 = DIRECTION ( 'NONE',  ( 0.000000000000000000, 1.000000000000000000, 0.000000000000000000 ) ) ;
#67 = EDGE_CURVE ( 'NONE', #173, #75, #48, .T. ) ;
#68 = DIRECTION ( 'NONE',  ( 1.000000000000000000, 0.000000000000000000, -0.000000000000000000 ) ) ;
#69 = APPLICATION_PROTOCOL_DEFINITION ( 'draft international standard', 'automotive_design', 1998, #106 ) ;
#70 = ORIENTED_EDGE ( 'NONE', *, *, #46, .T. ) ;
#71 = ORIENTED_EDGE ( 'NONE', *, *, #163, .F. ) ;
#72 = VECTOR ( 'NONE', #85, 1000.000000000000000 ) ;
#73 = CARTESIAN_POINT ( 'NONE',  ( 3000.000000000000455, -500.0000000000000000, 10.00000000000000000 ) ) ;
#74 = ORIENTED_EDGE ( 'NONE', *, *, #163, .T. ) ;
#75 = VERTEX_POINT ( 'NONE', #139 ) ;
#76 =( NAMED_UNIT ( * ) PLANE_ANGLE_UNIT ( ) SI_UNIT ( $, .RADIAN. ) );
#77 = CARTESIAN_POINT ( 'NONE',  ( 0.000000000000000000, 0.000000000000000000, 0.000000000000000000 ) ) ;
#78 = FACE_OUTER_BOUND ( 'NONE', #159, .T. ) ;
#79 = CARTESIAN_POINT ( 'NONE',  ( -2999.999999999999545, 500.0000000000000000, 10.00000000000000000 ) ) ;
#80 = CARTESIAN_POINT ( 'NONE',  ( 3000.000000000000455, -500.0000000000000000, 0.000000000000000000 ) ) ;
#81 = ORIENTED_EDGE ( 'NONE', *, *, #172, .F. ) ;
#82 = SHAPE_DEFINITION_REPRESENTATION ( #161, #45 ) ;
#83 = EDGE_LOOP ( 'NONE', ( #112, #130, #87, #128 ) ) ;
#84 = EDGE_LOOP ( 'NONE', ( #175, #71, #19, #143 ) ) ;
#85 = DIRECTION ( 'NONE',  ( 0.000000000000000000, 1.000000000000000000, 0.000000000000000000 ) ) ;
#86 = PRODUCT_RELATED_PRODUCT_CATEGORY ( 'part', '', ( #12 ) ) ;
#87 = ORIENTED_EDGE ( 'NONE', *, *, #172, .T. ) ;
#88 = SURFACE_STYLE_USAGE ( .BOTH. , #60 ) ;
#89 = DIRECTION ( 'NONE',  ( 0.000000000000000000, -0.000000000000000000, 1.000000000000000000 ) ) ;
#90 = CARTESIAN_POINT ( 'NONE',  ( 3000.000000000000455, -500.0000000000000000, 10.00000000000000000 ) ) ;
#91 = LINE ( 'NONE', #79, #1 ) ;
#92 = VECTOR ( 'NONE', #94, 1000.000000000000000 ) ;
#93 = PLANE ( 'NONE',  #41 ) ;
#94 = DIRECTION ( 'NONE',  ( 0.000000000000000000, 1.000000000000000000, 0.000000000000000000 ) ) ;
#95 = ORIENTED_EDGE ( 'NONE', *, *, #148, .T. ) ;
#96 = AXIS2_PLACEMENT_3D ( 'NONE', #8, #107, #119 ) ;
#97 = ADVANCED_FACE ( 'NONE', ( #181 ), #64, .T. ) ;
#98 = ORIENTED_EDGE ( 'NONE', *, *, #158, .F. ) ;
#99 = EDGE_CURVE ( 'NONE', #174, #127, #167, .T. ) ;
#100 = DIRECTION ( 'NONE',  ( -0.000000000000000000, -0.000000000000000000, -1.000000000000000000 ) ) ;
#101 = CARTESIAN_POINT ( 'NONE',  ( -2999.999999999999545, -500.0000000000000000, 0.000000000000000000 ) ) ;
#102 = AXIS2_PLACEMENT_3D ( 'NONE', #115, #178, #4 ) ;
#103 = PLANE ( 'NONE',  #43 ) ;
#104 = DIRECTION ( 'NONE',  ( 1.000000000000000000, 0.000000000000000000, 0.000000000000000000 ) ) ;
#105 = DIRECTION ( 'NONE',  ( 0.000000000000000000, 1.000000000000000000, 0.000000000000000000 ) ) ;
#106 = APPLICATION_CONTEXT ( 'automotive_design' ) ;
#107 = DIRECTION ( 'NONE',  ( -1.000000000000000000, 0.000000000000000000, 0.000000000000000000 ) ) ;
#108 = PRESENTATION_LAYER_ASSIGNMENT (  '', '', ( #3 ) ) ;
#109 = EDGE_CURVE ( 'NONE', #17, #174, #169, .T. ) ;
#110 = DIRECTION ( 'NONE',  ( 0.000000000000000000, 1.000000000000000000, 0.000000000000000000 ) ) ;
#111 = PRODUCT_CONTEXT ( 'NONE', #106, 'mechanical' ) ;
#112 = ORIENTED_EDGE ( 'NONE', *, *, #9, .F. ) ;
#113 = PRESENTATION_STYLE_ASSIGNMENT (( #88 ) ) ;
#114 =( GEOMETRIC_REPRESENTATION_CONTEXT ( 3 ) GLOBAL_UNCERTAINTY_ASSIGNED_CONTEXT ( ( #180 ) ) GLOBAL_UNIT_ASSIGNED_CONTEXT ( ( #36, #116, #55 ) ) REPRESENTATION_CONTEXT ( 'NONE', 'WORKASPACE' ) );
#115 = CARTESIAN_POINT ( 'NONE',  ( -2999.999999999999545, -500.0000000000000000, 10.00000000000000000 ) ) ;
#116 =( NAMED_UNIT ( * ) PLANE_ANGLE_UNIT ( ) SI_UNIT ( $, .RADIAN. ) );
#117 = CLOSED_SHELL ( 'NONE', ( #134, #51, #121, #15, #97, #59 ) ) ;
#118 = LINE ( 'NONE', #123, #186 ) ;
#119 = DIRECTION ( 'NONE',  ( 0.000000000000000000, 0.000000000000000000, 1.000000000000000000 ) ) ;
#120 = DIRECTION ( 'NONE',  ( -0.000000000000000000, -0.000000000000000000, -1.000000000000000000 ) ) ;
#121 = ADVANCED_FACE ( 'NONE', ( #24 ), #93, .T. ) ;
#122 = VECTOR ( 'NONE', #10, 1000.000000000000000 ) ;
#123 = CARTESIAN_POINT ( 'NONE',  ( -2999.999999999999545, -500.0000000000000000, 0.000000000000000000 ) ) ;
#124 = ORIENTED_EDGE ( 'NONE', *, *, #67, .F. ) ;
#125 = EDGE_LOOP ( 'NONE', ( #95, #37, #162, #74 ) ) ;
#126 = PRODUCT_DEFINITION ( 'UNKNOWN', '', #52, #31 ) ;
#127 = VERTEX_POINT ( 'NONE', #138 ) ;
#128 = ORIENTED_EDGE ( 'NONE', *, *, #67, .T. ) ;
#129 = PLANE ( 'NONE',  #96 ) ;
#130 = ORIENTED_EDGE ( 'NONE', *, *, #99, .F. ) ;
#131 = FILL_AREA_STYLE ('',( #62 ) ) ;
#132 = AXIS2_PLACEMENT_3D ( 'NONE', #157, #141, #13 ) ;
#133 = CARTESIAN_POINT ( 'NONE',  ( 3000.000000000000455, 500.0000000000000000, 10.00000000000000000 ) ) ;
#134 = ADVANCED_FACE ( 'NONE', ( #135 ), #21, .F. ) ;
#135 = FACE_OUTER_BOUND ( 'NONE', #125, .T. ) ;
#136 =( GEOMETRIC_REPRESENTATION_CONTEXT ( 3 ) GLOBAL_UNCERTAINTY_ASSIGNED_CONTEXT ( ( #166 ) ) GLOBAL_UNIT_ASSIGNED_CONTEXT ( ( #42, #76, #18 ) ) REPRESENTATION_CONTEXT ( 'NONE', 'WORKASPACE' ) );
#137 = LINE ( 'NONE', #187, #122 ) ;
#138 = CARTESIAN_POINT ( 'NONE',  ( -2999.999999999999545, 500.0000000000000000, 0.000000000000000000 ) ) ;
#139 = CARTESIAN_POINT ( 'NONE',  ( 3000.000000000000455, 500.0000000000000000, 0.000000000000000000 ) ) ;
#140 = MECHANICAL_DESIGN_GEOMETRIC_PRESENTATION_REPRESENTATION (  '', ( #3 ), #136 ) ;
#141 = DIRECTION ( 'NONE',  ( 0.000000000000000000, 0.000000000000000000, 1.000000000000000000 ) ) ;
#142 = ORIENTED_EDGE ( 'NONE', *, *, #148, .F. ) ;
#143 = ORIENTED_EDGE ( 'NONE', *, *, #99, .T. ) ;
#144 = ORIENTED_EDGE ( 'NONE', *, *, #28, .T. ) ;
#145 = ORIENTED_EDGE ( 'NONE', *, *, #151, .T. ) ;
#146 = ORIENTED_EDGE ( 'NONE', *, *, #151, .F. ) ;
#147 = VECTOR ( 'NONE', #110, 1000.000000000000000 ) ;
#148 = EDGE_CURVE ( 'NONE', #165, #177, #118, .T. ) ;
#149 = LINE ( 'NONE', #176, #40 ) ;
#150 = VECTOR ( 'NONE', #23, 1000.000000000000000 ) ;
#151 = EDGE_CURVE ( 'NONE', #177, #75, #168, .T. ) ;
#152 = LINE ( 'NONE', #90, #92 ) ;
#153 = LINE ( 'NONE', #171, #150 ) ;
#154 = AXIS2_PLACEMENT_3D ( 'NONE', #170, #35, #68 ) ;
#155 = DIRECTION ( 'NONE',  ( 0.000000000000000000, 1.000000000000000000, 0.000000000000000000 ) ) ;
#156 = CARTESIAN_POINT ( 'NONE',  ( 3000.000000000000455, -500.0000000000000000, 10.00000000000000000 ) ) ;
#157 = CARTESIAN_POINT ( 'NONE',  ( 0.000000000000000000, 0.000000000000000000, 0.000000000000000000 ) ) ;
#158 = EDGE_CURVE ( 'NONE', #182, #173, #152, .T. ) ;
#159 = EDGE_LOOP ( 'NONE', ( #142, #144, #58, #146 ) ) ;
#160 = EDGE_CURVE ( 'NONE', #17, #182, #153, .T. ) ;
#161 = PRODUCT_DEFINITION_SHAPE ( 'NONE', 'NONE',  #126 ) ;
#162 = ORIENTED_EDGE ( 'NONE', *, *, #160, .F. ) ;
#163 = EDGE_CURVE ( 'NONE', #17, #165, #137, .T. ) ;
#164 = AXIS2_PLACEMENT_3D ( 'NONE', #34, #66, #89 ) ;
#165 = VERTEX_POINT ( 'NONE', #49 ) ;
#166 = UNCERTAINTY_MEASURE_WITH_UNIT (LENGTH_MEASURE( 1.000000000000000082E-05 ), #42, 'distance_accuracy_value', 'NONE');
#167 = LINE ( 'NONE', #25, #20 ) ;
#168 = LINE ( 'NONE', #50, #56 ) ;
#169 = LINE ( 'NONE', #32, #147 ) ;
#170 = CARTESIAN_POINT ( 'NONE',  ( 0.000000000000000000, 0.000000000000000000, 10.00000000000000000 ) ) ;
#171 = CARTESIAN_POINT ( 'NONE',  ( -2999.999999999999545, -500.0000000000000000, 10.00000000000000000 ) ) ;
#172 = EDGE_CURVE ( 'NONE', #174, #173, #91, .T. ) ;
#173 = VERTEX_POINT ( 'NONE', #185 ) ;
#174 = VERTEX_POINT ( 'NONE', #22 ) ;
#175 = ORIENTED_EDGE ( 'NONE', *, *, #28, .F. ) ;
#176 = CARTESIAN_POINT ( 'NONE',  ( -2999.999999999999545, 500.0000000000000000, 0.000000000000000000 ) ) ;
#177 = VERTEX_POINT ( 'NONE', #80 ) ;
#178 = DIRECTION ( 'NONE',  ( -1.000000000000000000, 0.000000000000000000, 0.000000000000000000 ) ) ;
#179 = CARTESIAN_POINT ( 'NONE',  ( -2999.999999999999545, -500.0000000000000000, 10.00000000000000000 ) ) ;
#180 = UNCERTAINTY_MEASURE_WITH_UNIT (LENGTH_MEASURE( 1.000000000000000082E-05 ), #36, 'distance_accuracy_value', 'NONE');
#181 = FACE_OUTER_BOUND ( 'NONE', #39, .T. ) ;
#182 = VERTEX_POINT ( 'NONE', #156 ) ;
#183 = DIRECTION ( 'NONE',  ( 0.000000000000000000, -0.000000000000000000, 1.000000000000000000 ) ) ;
#184 = DIRECTION ( 'NONE',  ( 1.000000000000000000, 0.000000000000000000, -0.000000000000000000 ) ) ;
#185 = CARTESIAN_POINT ( 'NONE',  ( 3000.000000000000455, 500.0000000000000000, 10.00000000000000000 ) ) ;
#186 = VECTOR ( 'NONE', #104, 1000.000000000000000 ) ;
#187 = CARTESIAN_POINT ( 'NONE',  ( -2999.999999999999545, -500.0000000000000000, 10.00000000000000000 ) ) ;
ENDSEC;
END-ISO-10303-21;
