ISO-10303-21;
HEADER;
FILE_DESCRIPTION (( 'STEP AP214' ),
    '1' );
FILE_NAME ('SL_Disk_dummy.STEP',
    '2025-05-14T23:26:14',
    ( '' ),
    ( '' ),
    'SwSTEP 2.0',
    'SolidWorks 2023',
    '' );
FILE_SCHEMA (( 'AUTOMOTIVE_DESIGN' ));
ENDSEC;

DATA;
#1 = UNCERTAINTY_MEASURE_WITH_UNIT (LENGTH_MEASURE( 1.000000000000000082E-05 ), #39, 'distance_accuracy_value', 'NONE');
#2 = STYLED_ITEM ( 'NONE', ( #5 ), #73 ) ;
#3 = DIRECTION ( 'NONE',  ( 0.000000000000000000, 0.000000000000000000, 1.000000000000000000 ) ) ;
#4 = FACE_OUTER_BOUND ( 'NONE', #53, .T. ) ;
#5 = PRESENTATION_STYLE_ASSIGNMENT (( #63 ) ) ;
#6 = CIRCLE ( 'NONE', #20, 15.00000000000000000 ) ;
#7 = CARTESIAN_POINT ( 'NONE',  ( 0.000000000000000000, 3.000000000000000000, 15.00000000000000000 ) ) ;
#8 = DIRECTION ( 'NONE',  ( 0.000000000000000000, 0.000000000000000000, 1.000000000000000000 ) ) ;
#9 = PRESENTATION_LAYER_ASSIGNMENT (  '', '', ( #2 ) ) ;
#10 = DIRECTION ( 'NONE',  ( 0.000000000000000000, 0.000000000000000000, 1.000000000000000000 ) ) ;
#11 = ORIENTED_EDGE ( 'NONE', *, *, #35, .T. ) ;
#12 = UNCERTAINTY_MEASURE_WITH_UNIT (LENGTH_MEASURE( 1.000000000000000082E-05 ), #48, 'distance_accuracy_value', 'NONE');
#13 =( NAMED_UNIT ( * ) SI_UNIT ( $, .STERADIAN. ) SOLID_ANGLE_UNIT ( ) );
#14 = CARTESIAN_POINT ( 'NONE',  ( 0.000000000000000000, 0.000000000000000000, 0.000000000000000000 ) ) ;
#15 =( GEOMETRIC_REPRESENTATION_CONTEXT ( 3 ) GLOBAL_UNCERTAINTY_ASSIGNED_CONTEXT ( ( #1 ) ) GLOBAL_UNIT_ASSIGNED_CONTEXT ( ( #39, #67, #13 ) ) REPRESENTATION_CONTEXT ( 'NONE', 'WORKASPACE' ) );
#16 = ORIENTED_EDGE ( 'NONE', *, *, #61, .T. ) ;
#17 = ORIENTED_EDGE ( 'NONE', *, *, #35, .F. ) ;
#18 = PRODUCT_RELATED_PRODUCT_CATEGORY ( 'part', '', ( #64 ) ) ;
#19 = SURFACE_STYLE_FILL_AREA ( #55 ) ;
#20 = AXIS2_PLACEMENT_3D ( 'NONE', #43, #71, #10 ) ;
#21 = ADVANCED_FACE ( 'NONE', ( #37, #4 ), #60, .T. ) ;
#22 = VERTEX_POINT ( 'NONE', #46 ) ;
#23 = AXIS2_PLACEMENT_3D ( 'NONE', #52, #83, #8 ) ;
#24 = CIRCLE ( 'NONE', #23, 15.00000000000000000 ) ;
#25 = CARTESIAN_POINT ( 'NONE',  ( 0.000000000000000000, -3.000000000000000000, 0.000000000000000000 ) ) ;
#26 = SURFACE_SIDE_STYLE ('',( #19 ) ) ;
#27 = DIRECTION ( 'NONE',  ( 1.000000000000000000, 0.000000000000000000, 0.000000000000000000 ) ) ;
#28 = AXIS2_PLACEMENT_3D ( 'NONE', #25, #32, #54 ) ;
#29 = DIRECTION ( 'NONE',  ( 0.000000000000000000, 1.000000000000000000, 0.000000000000000000 ) ) ;
#30 = ORIENTED_EDGE ( 'NONE', *, *, #61, .F. ) ;
#31 = ADVANCED_BREP_SHAPE_REPRESENTATION ( 'SL_Disk_dummy', ( #73, #66 ), #15 ) ;
#32 = DIRECTION ( 'NONE',  ( 0.000000000000000000, 1.000000000000000000, 0.000000000000000000 ) ) ;
#33 = APPLICATION_PROTOCOL_DEFINITION ( 'draft international standard', 'automotive_design', 1998, #45 ) ;
#34 = PRODUCT_DEFINITION ( 'UNKNOWN', '', #57, #65 ) ;
#35 = EDGE_CURVE ( 'NONE', #22, #22, #24, .T. ) ;
#36 = FACE_OUTER_BOUND ( 'NONE', #44, .T. ) ;
#37 = FACE_OUTER_BOUND ( 'NONE', #85, .T. ) ;
#38 = AXIS2_PLACEMENT_3D ( 'NONE', #51, #82, #81 ) ;
#39 =( LENGTH_UNIT ( ) NAMED_UNIT ( * ) SI_UNIT ( .MILLI., .METRE. ) );
#40 = APPLICATION_PROTOCOL_DEFINITION ( 'draft international standard', 'automotive_design', 1998, #77 ) ;
#41 = AXIS2_PLACEMENT_3D ( 'NONE', #84, #29, #47 ) ;
#42 = SHAPE_DEFINITION_REPRESENTATION ( #72, #31 ) ;
#43 = CARTESIAN_POINT ( 'NONE',  ( 0.000000000000000000, 3.000000000000000000, 0.000000000000000000 ) ) ;
#44 = EDGE_LOOP ( 'NONE', ( #16 ) ) ;
#45 = APPLICATION_CONTEXT ( 'automotive_design' ) ;
#46 = CARTESIAN_POINT ( 'NONE',  ( 0.000000000000000000, -3.000000000000000000, 15.00000000000000000 ) ) ;
#47 = DIRECTION ( 'NONE',  ( 0.000000000000000000, -0.000000000000000000, 1.000000000000000000 ) ) ;
#48 =( LENGTH_UNIT ( ) NAMED_UNIT ( * ) SI_UNIT ( .MILLI., .METRE. ) );
#49 = COLOUR_RGB ( '',0.7921568627450980005, 0.8196078431372548767, 0.9333333333333333481 ) ;
#50 =( NAMED_UNIT ( * ) SI_UNIT ( $, .STERADIAN. ) SOLID_ANGLE_UNIT ( ) );
#51 = CARTESIAN_POINT ( 'NONE',  ( 0.000000000000000000, -3.000000000000000000, 0.000000000000000000 ) ) ;
#52 = CARTESIAN_POINT ( 'NONE',  ( 0.000000000000000000, -3.000000000000000000, 0.000000000000000000 ) ) ;
#53 = EDGE_LOOP ( 'NONE', ( #30 ) ) ;
#54 = DIRECTION ( 'NONE',  ( 0.000000000000000000, 0.000000000000000000, 1.000000000000000000 ) ) ;
#55 = FILL_AREA_STYLE ('',( #62 ) ) ;
#56 = ADVANCED_FACE ( 'NONE', ( #36 ), #59, .T. ) ;
#57 = PRODUCT_DEFINITION_FORMATION_WITH_SPECIFIED_SOURCE ( 'ANY', '', #64, .NOT_KNOWN. ) ;
#58 = FACE_OUTER_BOUND ( 'NONE', #76, .T. ) ;
#59 = PLANE ( 'NONE',  #41 ) ;
#60 = CYLINDRICAL_SURFACE ( 'NONE', #28, 15.00000000000000000 ) ;
#61 = EDGE_CURVE ( 'NONE', #74, #74, #6, .T. ) ;
#62 = FILL_AREA_STYLE_COLOUR ( '', #49 ) ;
#63 = SURFACE_STYLE_USAGE ( .BOTH. , #26 ) ;
#64 = PRODUCT ( 'SL_Disk_dummy', 'SL_Disk_dummy', '', ( #69 ) ) ;
#65 = PRODUCT_DEFINITION_CONTEXT ( 'detailed design', #77, 'design' ) ;
#66 = AXIS2_PLACEMENT_3D ( 'NONE', #14, #3, #27 ) ;
#67 =( NAMED_UNIT ( * ) PLANE_ANGLE_UNIT ( ) SI_UNIT ( $, .RADIAN. ) );
#68 = PLANE ( 'NONE',  #38 ) ;
#69 = PRODUCT_CONTEXT ( 'NONE', #45, 'mechanical' ) ;
#70 =( GEOMETRIC_REPRESENTATION_CONTEXT ( 3 ) GLOBAL_UNCERTAINTY_ASSIGNED_CONTEXT ( ( #12 ) ) GLOBAL_UNIT_ASSIGNED_CONTEXT ( ( #48, #79, #50 ) ) REPRESENTATION_CONTEXT ( 'NONE', 'WORKASPACE' ) );
#71 = DIRECTION ( 'NONE',  ( 0.000000000000000000, 1.000000000000000000, 0.000000000000000000 ) ) ;
#72 = PRODUCT_DEFINITION_SHAPE ( 'NONE', 'NONE',  #34 ) ;
#73 = MANIFOLD_SOLID_BREP ( 'Boss-Extrude1', #80 ) ;
#74 = VERTEX_POINT ( 'NONE', #7 ) ;
#75 = ADVANCED_FACE ( 'NONE', ( #58 ), #68, .F. ) ;
#76 = EDGE_LOOP ( 'NONE', ( #17 ) ) ;
#77 = APPLICATION_CONTEXT ( 'automotive_design' ) ;
#78 = MECHANICAL_DESIGN_GEOMETRIC_PRESENTATION_REPRESENTATION (  '', ( #2 ), #70 ) ;
#79 =( NAMED_UNIT ( * ) PLANE_ANGLE_UNIT ( ) SI_UNIT ( $, .RADIAN. ) );
#80 = CLOSED_SHELL ( 'NONE', ( #21, #75, #56 ) ) ;
#81 = DIRECTION ( 'NONE',  ( 0.000000000000000000, -0.000000000000000000, 1.000000000000000000 ) ) ;
#82 = DIRECTION ( 'NONE',  ( 0.000000000000000000, 1.000000000000000000, 0.000000000000000000 ) ) ;
#83 = DIRECTION ( 'NONE',  ( 0.000000000000000000, 1.000000000000000000, 0.000000000000000000 ) ) ;
#84 = CARTESIAN_POINT ( 'NONE',  ( 0.000000000000000000, 3.000000000000000000, 0.000000000000000000 ) ) ;
#85 = EDGE_LOOP ( 'NONE', ( #11 ) ) ;
ENDSEC;
END-ISO-10303-21;
